<?xml version="1.0" encoding="utf-8"?>
<!-- Generator: Adobe Illustrator 15.1.0, SVG Export Plug-In . SVG Version: 6.00 Build 0)  -->
<!DOCTYPE svg PUBLIC "-//W3C//DTD SVG 1.1//EN" "http://www.w3.org/Graphics/SVG/1.1/DTD/svg11.dtd">
<svg version="1.1" id="Calque_1" xmlns="http://www.w3.org/2000/svg" xmlns:xlink="http://www.w3.org/1999/xlink" x="0px" y="0px"
	 width="110px" height="68px" viewBox="0 0 110 68" enable-background="new 0 0 110 68" xml:space="preserve">
<g>
	<path fill="#00974E" d="M84.853,21.155c-10.325,2.631-19.512,8.233-19.512,8.233c-9.216,5.325-11.906,9.517-11.906,9.517
		s-2.775-7.987-11.101-9.208c-8.326-1.219-13.297,6.6-13.297,6.6l2.85,6.24c0,0,2.922-8.549,11.223-7.184
		C52.546,36.909,51.77,50,51.77,50s6.271-8.298,15.818-14.01c0,0,9.104-5.714,19.926-8.846L84.853,21.155z"/>
	<path fill="#C5262C" d="M83.52,1.108C71.986,2.39,59.816,10.04,59.816,10.04c-6.382,3.493-9.435,6.713-9.435,6.713
		s-5.549-5.661-14.571-6.103c-8.404-0.413-15.236,7.322-15.236,7.322l7.675,16.777c0,0,4.765-6.948,12.14-6.625
		c9.951,0.437,13.323,8.321,13.323,8.321s3.995-4.486,12.155-9.089c0,0,14.223-8.047,24.369-8.604L83.52,1.108z"/>
	<path fill="#231F20" d="M15.895,66.365c-1.604,0.407-4.315,0.743-6.113,0.743c-3.118,0-5.179-0.623-6.954-2.084
		C1.03,63.538,0,61.379,0,59.082c0-5.226,3.954-8.724,9.852-8.724c1.992,0,3.981,0.361,5.755,1.079v4.095
		c-1.75-0.955-3.334-1.389-5.036-1.389c-2.828,0-4.843,1.94-4.843,4.65c0,2.61,1.773,4.265,4.555,4.265c0.288,0,0.6,0,0.958-0.025
		l0.287-0.022v-1.916H9.495v-3.478h6.399V66.365z"/>
	<path fill="#231F20" d="M35.576,58.985c0,3.068-0.888,5.176-2.759,6.52c-1.583,1.125-3.332,1.604-5.995,1.604
		c-3.907,0-6.687-1.319-7.981-3.738c-0.575-1.056-0.793-2.111-0.793-3.76v-9.06h5.732v7.932c0,1.702,0.192,2.54,0.672,3.188
		c0.501,0.621,1.34,1.007,2.229,1.007c2.228,0,3.164-1.248,3.164-4.171V50.55h5.732V58.985z"/>
	<polygon fill="#231F20" points="37.802,50.55 50.077,50.55 50.077,54 43.459,54 43.459,56.924 49.502,56.924 49.502,60.325 
		43.459,60.325 43.459,63.37 50.15,63.37 50.15,66.892 37.802,66.892 	"/>
	<polygon fill="#231F20" points="57.67,50.536 53.242,66.855 50.819,66.855 55.221,50.536 	"/>
	<polygon fill="#231F20" points="58.34,50.55 63.254,50.55 71.572,58.961 71.214,50.55 77.018,50.55 77.018,66.892 72.079,66.892 
		63.76,58.505 64.119,66.892 58.34,66.892 	"/>
	<path fill="#231F20" d="M95.163,66.365c-1.606,0.407-4.313,0.743-6.116,0.743c-3.115,0-5.177-0.623-6.951-2.084
		c-1.796-1.486-2.828-3.645-2.828-5.942c0-5.226,3.955-8.724,9.854-8.724c1.989,0,3.98,0.361,5.755,1.079v4.095
		c-1.751-0.955-3.333-1.389-5.036-1.389c-2.828,0-4.843,1.94-4.843,4.65c0,2.61,1.774,4.265,4.556,4.265c0.287,0,0.598,0,0.96-0.025
		l0.288-0.022v-1.916H88.76v-3.478h6.403V66.365z"/>
	<polygon fill="#231F20" points="97.846,50.55 103.574,50.55 103.574,62.793 110,62.793 110,66.892 97.846,66.892 	"/>
</g>
</svg>
